<svg id="Layer_1" data-name="Layer 1" xmlns="http://www.w3.org/2000/svg" viewBox="0 0 109.68 118.24"><defs><style>.cls-1{fill:#fff;}</style></defs><path class="cls-1" d="M650.36,432.12A47.57,47.57,0,0,1,562.24,457a11.55,11.55,0,1,1-6.88-21.26c-.09-1.2-.13-2.4-.13-3.61v0A15.34,15.34,0,1,1,564.45,404c.73-1,1.5-2,2.31-2.9A23.1,23.1,0,1,1,606,384.55v.11A47.57,47.57,0,0,1,650.36,432.12ZM592.9,453.26l6.82-12.15h8.58a43.7,43.7,0,0,0,7.7-.66,24.92,24.92,0,0,0,6.68-2.15,17.56,17.56,0,0,0,5.2-3.88,16.11,16.11,0,0,0,3.35-5.8,10.61,10.61,0,0,0,.61-4.54,7.83,7.83,0,0,0-1.41-3.82,8.27,8.27,0,0,0-3.3-2.64,12.05,12.05,0,0,0-5.14-1H596.75l-20.57,36.63Zm19-33.66a4.85,4.85,0,0,1,2.94.83,4.62,4.62,0,0,1,1.63,2.14,6.9,6.9,0,0,1,.35,3,10.35,10.35,0,0,1-.85,3.33,13.46,13.46,0,0,1-2.14,3.46,14.72,14.72,0,0,1-2.89,2.61,12.34,12.34,0,0,1-7,2.18h-2l9.85-17.55Z" transform="translate(-540.68 -361.45)"/></svg>